# xmcd
#
# Track frame offsets:
#	150
#	19865
#	33698
#	51680
#	68743
#	83733
#	101350
#	117690
#	130905
#	147533
#	161955
#	176238
#	193495
#	204463
#	217923
#	231535
#	247540
#	263515
#	277310
#	293195
#
# Disc length: 4103
#
# Revision: 1
# Processed by: cddbd v1.5.1PL0 Copyright (c) Steve Scherf et al.
# Submitted via: ExactAudioCopy v0.90b4
# Normalized: r0:DSETVAR1,TDELIM( - )
#
DISCID=44100514
DTITLE=Various Artist - Heavy Metal Arista Style 1990-1993 CD2
DYEAR=1993
DGENRE=Country
TTITLE0=Brooks and Dunn - Neon Moon
TTITLE1=Diamond Rio - Norma Jean Riley
TTITLE2=Michelle Wright - Take It Like A Man
TTITLE3=Alan Jackson - Midnight In Montgomery
TTITLE4=Brooks and Dunn - Boot Scootin' Boogie
TTITLE5=Steve Wariner - A Woman Loves
TTITLE6=Lee Roy Parnell - What Kind Of Fool Do You Think I Am
TTITLE7=Alan Jackson - Love's Got A Hold Of You
TTITLE8=Diamond Rio - Nowhere Bound
TTITLE9=Radney Foster - Just Call Me Lonesome
TTITLE10=Pam Tillis - Shake The Sugar Tree
TTITLE11=Brooks and Dunn - Lost And Found
TTITLE12=Alan Jackson - She's Got The Rhythm (And I Got The Blues)
TTITLE13=Brooks and Dunn - Hard Workin' Man
TTITLE14=Diamond Rio - In A Week Or Two
TTITLE15=Alan Jackson - Tonight I Climbed The Wall
TTITLE16=Radney Foster - Nobody Wins
TTITLE17=Lee Roy Parnell - Love Without Mercy
TTITLE18=Pam Tillis - Let That Pony Run
TTITLE19=Diamond Rio - Oh Me, Oh My, Sweet Baby
EXTD=
EXTT0=
EXTT1=
EXTT2=
EXTT3=
EXTT4=
EXTT5=
EXTT6=
EXTT7=
EXTT8=
EXTT9=
EXTT10=
EXTT11=
EXTT12=
EXTT13=
EXTT14=
EXTT15=
EXTT16=
EXTT17=
EXTT18=
EXTT19=
PLAYORDER=
